<svg xmlns="http://www.w3.org/2000/svg" xmlns:xlink="http://www.w3.org/1999/xlink" width="500" zoomAndPan="magnify" viewBox="0 0 375 374.999991" height="500" preserveAspectRatio="xMidYMid meet" version="1.0"><defs><g/><clipPath id="94aed07f49"><path d="M 51 58 L 318 58 L 318 325 L 51 325 Z M 51 58 " clip-rule="nonzero"/></clipPath><clipPath id="6defabafb2"><path d="M 188.445312 1.929688 L 334.148438 154.199219 L 140.148438 339.824219 L -5.550781 187.554688 Z M 188.445312 1.929688 " clip-rule="nonzero"/></clipPath><clipPath id="afb21561da"><path d="M 188.445312 1.929688 L 374.074219 195.925781 L 180.074219 381.550781 L -5.550781 187.554688 Z M 188.445312 1.929688 " clip-rule="nonzero"/></clipPath><clipPath id="e88ac3e4ae"><path d="M 243.648438 211.566406 L 256.839844 211.566406 L 256.839844 224.757812 L 243.648438 224.757812 Z M 243.648438 211.566406 " clip-rule="nonzero"/></clipPath><clipPath id="59a1187b12"><path d="M 250.246094 211.566406 C 246.601562 211.566406 243.648438 214.519531 243.648438 218.164062 C 243.648438 221.804688 246.601562 224.757812 250.246094 224.757812 C 253.886719 224.757812 256.839844 221.804688 256.839844 218.164062 C 256.839844 214.519531 253.886719 211.566406 250.246094 211.566406 Z M 250.246094 211.566406 " clip-rule="nonzero"/></clipPath></defs><g clip-path="url(#94aed07f49)"><g clip-path="url(#6defabafb2)"><g clip-path="url(#afb21561da)"><path fill="#000000" d="M 245.402344 307.125 C 234.6875 312.671875 223.164062 316.511719 211.402344 318.851562 C 201.777344 320.699219 192.007812 321.675781 182.226562 321.628906 C 180.921875 321.660156 179.625 321.546875 178.324219 321.5 C 177.023438 321.429688 175.722656 321.398438 174.421875 321.300781 L 170.535156 320.945312 L 168.589844 320.765625 L 166.65625 320.5 L 162.789062 319.984375 C 161.503906 319.78125 160.226562 319.527344 158.941406 319.308594 C 156.367188 318.90625 153.839844 318.277344 151.289062 317.734375 C 150.925781 317.65625 150.542969 317.570312 150.140625 317.484375 C 149.746094 317.375 149.335938 317.261719 148.90625 317.144531 C 148.050781 316.910156 147.132812 316.65625 146.152344 316.386719 C 144.183594 315.890625 142.039062 315.125 139.671875 314.34375 C 139.085938 314.140625 138.476562 313.957031 137.867188 313.726562 C 137.265625 313.492188 136.648438 313.25 136.023438 313.003906 C 134.769531 312.511719 133.46875 312 132.128906 311.472656 C 129.519531 310.261719 126.679688 309.113281 123.871094 307.585938 C 112.402344 301.910156 100.074219 292.925781 89.613281 282.085938 C 79.242188 271.15625 70.8125 258.445312 65.644531 246.738281 C 64.246094 243.859375 63.222656 240.972656 62.125 238.3125 C 61.660156 236.949219 61.207031 235.632812 60.769531 234.359375 C 60.550781 233.71875 60.335938 233.09375 60.128906 232.480469 C 59.925781 231.867188 59.769531 231.25 59.59375 230.652344 C 58.917969 228.253906 58.242188 226.078125 57.835938 224.085938 C 57.609375 223.097656 57.398438 222.167969 57.199219 221.304688 C 57.101562 220.871094 57.007812 220.457031 56.917969 220.054688 C 56.847656 219.652344 56.78125 219.265625 56.714844 218.894531 C 54.933594 209.273438 54.019531 199.507812 54.132812 189.722656 C 54.355469 179.304688 55.859375 168.949219 58.25 158.792969 C 61.105469 147.144531 65.453125 135.800781 71.464844 125.34375 C 77.351562 114.808594 84.96875 105.257812 93.644531 96.808594 C 102.46875 88.515625 112.347656 81.324219 123.128906 75.90625 C 133.84375 70.363281 145.367188 66.519531 157.128906 64.183594 C 166.753906 62.335938 176.523438 61.355469 186.304688 61.402344 C 187.605469 61.371094 188.90625 61.484375 190.207031 61.53125 C 191.507812 61.601562 192.808594 61.632812 194.105469 61.730469 L 197.996094 62.089844 L 199.941406 62.265625 L 201.875 62.53125 L 205.742188 63.050781 C 207.027344 63.25 208.304688 63.503906 209.589844 63.726562 C 212.164062 64.125 214.691406 64.753906 217.238281 65.296875 C 217.605469 65.378906 217.988281 65.460938 218.390625 65.550781 C 218.785156 65.65625 219.195312 65.769531 219.625 65.886719 C 220.480469 66.121094 221.398438 66.375 222.378906 66.644531 C 224.347656 67.140625 226.492188 67.910156 228.859375 68.6875 C 229.445312 68.890625 230.054688 69.078125 230.664062 69.304688 C 231.265625 69.542969 231.882812 69.78125 232.507812 70.027344 C 233.761719 70.519531 235.0625 71.03125 236.402344 71.558594 C 239.011719 72.769531 241.851562 73.917969 244.660156 75.445312 C 256.128906 81.121094 268.457031 90.105469 278.917969 100.949219 C 289.289062 111.875 297.71875 124.589844 302.882812 136.296875 C 304.285156 139.171875 305.308594 142.058594 306.40625 144.71875 C 306.871094 146.082031 307.324219 147.402344 307.761719 148.675781 C 307.980469 149.3125 308.191406 149.9375 308.402344 150.550781 C 308.605469 151.167969 308.761719 151.785156 308.9375 152.378906 C 309.613281 154.777344 310.289062 156.953125 310.695312 158.945312 C 310.921875 159.933594 311.132812 160.863281 311.332031 161.726562 C 311.429688 162.160156 311.523438 162.578125 311.613281 162.976562 C 311.683594 163.378906 311.75 163.769531 311.816406 164.136719 C 313.597656 173.757812 314.511719 183.527344 314.398438 193.308594 C 314.175781 203.726562 312.671875 214.085938 310.28125 224.238281 C 307.425781 235.886719 303.078125 247.230469 297.066406 257.6875 C 291.179688 268.222656 283.5625 277.777344 274.886719 286.222656 C 266.0625 294.519531 256.183594 301.707031 245.402344 307.125 Z M 277.03125 288.339844 L 277.039062 288.328125 C 285.894531 279.703125 293.683594 269.949219 299.71875 259.191406 C 305.871094 248.507812 310.320312 236.90625 313.199219 224.996094 L 314.453125 219.394531 C 314.453125 219.394531 314.746094 217.84375 315.1875 215.515625 C 315.691406 213.195312 316.039062 210.050781 316.5 206.925781 C 316.765625 203.777344 317.144531 200.640625 317.183594 198.269531 C 317.289062 195.90625 317.355469 194.328125 317.355469 194.328125 C 317.355469 194.328125 317.367188 193.933594 317.371094 193.242188 C 317.371094 192.554688 317.378906 191.566406 317.382812 190.382812 C 317.457031 188.011719 317.265625 184.863281 317.140625 181.707031 C 317.03125 180.132812 316.863281 178.5625 316.738281 177.085938 C 316.671875 176.351562 316.605469 175.636719 316.542969 174.960938 C 316.449219 174.289062 316.359375 173.65625 316.277344 173.070312 C 315.953125 170.722656 315.734375 169.160156 315.734375 169.160156 C 315.734375 169.160156 315.707031 168.800781 315.605469 168.273438 C 315.511719 167.746094 315.386719 167.039062 315.265625 166.335938 C 315.019531 164.921875 314.769531 163.507812 314.769531 163.507812 C 314.703125 163.132812 314.636719 162.734375 314.566406 162.320312 C 314.476562 161.910156 314.382812 161.484375 314.28125 161.042969 C 314.082031 160.15625 313.867188 159.207031 313.636719 158.195312 C 313.222656 156.15625 312.539062 153.925781 311.851562 151.472656 C 311.671875 150.863281 311.507812 150.230469 311.304688 149.601562 C 311.089844 148.972656 310.871094 148.328125 310.652344 147.679688 C 310.207031 146.375 309.742188 145.023438 309.265625 143.628906 C 308.148438 140.902344 307.101562 137.949219 305.671875 135 C 300.390625 123.015625 291.765625 109.992188 281.148438 98.8125 C 270.449219 87.714844 257.820312 78.523438 246.074219 72.71875 C 243.195312 71.164062 240.289062 69.984375 237.617188 68.75 C 236.246094 68.210938 234.914062 67.6875 233.632812 67.1875 C 232.988281 66.9375 232.359375 66.691406 231.742188 66.449219 C 231.121094 66.214844 230.496094 66.027344 229.894531 65.820312 C 227.472656 65.023438 225.277344 64.242188 223.257812 63.738281 C 222.257812 63.464844 221.316406 63.207031 220.4375 62.96875 C 220.003906 62.851562 219.578125 62.738281 219.175781 62.628906 C 218.765625 62.539062 218.371094 62.453125 217.996094 62.371094 C 217.996094 62.371094 216.597656 62.0625 215.199219 61.753906 C 214.5 61.601562 213.800781 61.445312 213.273438 61.328125 C 212.753906 61.203125 212.394531 61.160156 212.394531 61.160156 C 212.394531 61.160156 210.84375 60.875 208.515625 60.445312 C 207.933594 60.335938 207.300781 60.21875 206.636719 60.097656 C 205.960938 60.003906 205.253906 59.910156 204.519531 59.808594 C 203.050781 59.617188 201.492188 59.382812 199.921875 59.203125 C 196.777344 58.941406 193.636719 58.605469 191.265625 58.578125 C 190.082031 58.53125 189.097656 58.492188 188.40625 58.464844 C 187.71875 58.4375 187.324219 58.429688 187.324219 58.429688 C 187.324219 58.429688 185.746094 58.429688 183.378906 58.429688 C 181.007812 58.363281 177.855469 58.605469 174.699219 58.730469 C 171.558594 59.054688 168.402344 59.261719 166.0625 59.664062 C 163.714844 60 162.152344 60.226562 162.152344 60.226562 L 156.5 61.230469 C 144.476562 63.585938 132.691406 67.515625 121.746094 73.191406 C 110.734375 78.746094 100.644531 86.097656 91.636719 94.566406 L 91.625 94.570312 L 91.492188 94.703125 C 82.636719 103.332031 74.84375 113.085938 68.8125 123.84375 C 62.660156 134.527344 58.210938 146.125 55.332031 158.035156 L 54.078125 163.636719 C 54.078125 163.636719 53.785156 165.191406 53.34375 167.519531 C 52.839844 169.839844 52.492188 172.980469 52.03125 176.105469 C 51.765625 179.253906 51.386719 182.390625 51.347656 184.761719 C 51.246094 187.125 51.175781 188.703125 51.175781 188.703125 C 51.175781 188.703125 51.164062 189.097656 51.160156 189.789062 C 51.15625 190.480469 51.152344 191.464844 51.148438 192.648438 C 51.074219 195.019531 51.265625 198.171875 51.390625 201.324219 C 51.5 202.898438 51.667969 204.46875 51.792969 205.945312 C 51.859375 206.683594 51.925781 207.394531 51.988281 208.070312 C 52.082031 208.742188 52.171875 209.375 52.253906 209.964844 C 52.578125 212.308594 52.796875 213.871094 52.796875 213.871094 C 52.796875 213.871094 52.824219 214.230469 52.925781 214.757812 C 53.019531 215.289062 53.144531 215.992188 53.265625 216.699219 C 53.511719 218.109375 53.761719 219.523438 53.761719 219.523438 C 53.824219 219.902344 53.894531 220.296875 53.964844 220.710938 C 54.054688 221.121094 54.148438 221.546875 54.25 221.988281 C 54.449219 222.875 54.664062 223.824219 54.894531 224.839844 C 55.308594 226.875 55.992188 229.105469 56.679688 231.558594 C 56.859375 232.171875 57.023438 232.800781 57.226562 233.433594 C 57.441406 234.0625 57.660156 234.703125 57.878906 235.355469 C 58.324219 236.660156 58.789062 238.011719 59.265625 239.40625 C 60.382812 242.128906 61.429688 245.082031 62.859375 248.03125 C 68.140625 260.015625 76.769531 273.039062 87.378906 284.21875 C 98.082031 295.316406 110.710938 304.507812 122.453125 310.3125 C 125.335938 311.871094 128.242188 313.046875 130.914062 314.285156 C 132.285156 314.824219 133.613281 315.34375 134.898438 315.847656 C 135.542969 316.097656 136.171875 316.34375 136.789062 316.582031 C 137.410156 316.816406 138.035156 317.007812 138.636719 317.210938 C 141.058594 318.007812 143.253906 318.789062 145.273438 319.292969 C 146.273438 319.566406 147.214844 319.824219 148.089844 320.0625 C 148.527344 320.179688 148.953125 320.296875 149.355469 320.402344 C 149.765625 320.492188 150.160156 320.578125 150.535156 320.660156 C 150.535156 320.660156 151.933594 320.96875 153.332031 321.277344 C 154.03125 321.433594 154.730469 321.585938 155.257812 321.703125 C 155.777344 321.828125 156.136719 321.871094 156.136719 321.871094 C 156.136719 321.871094 157.6875 322.160156 160.015625 322.589844 C 160.597656 322.695312 161.230469 322.8125 161.894531 322.933594 C 162.570312 323.027344 163.277344 323.125 164.011719 323.222656 C 165.480469 323.414062 167.039062 323.648438 168.609375 323.828125 C 171.753906 324.09375 174.894531 324.425781 177.265625 324.457031 C 178.449219 324.503906 179.433594 324.539062 180.121094 324.566406 C 180.8125 324.597656 181.207031 324.601562 181.207031 324.601562 C 181.207031 324.601562 182.785156 324.601562 185.152344 324.601562 C 187.523438 324.667969 190.675781 324.429688 193.832031 324.300781 C 196.972656 323.980469 200.128906 323.769531 202.46875 323.367188 C 204.816406 323.03125 206.378906 322.808594 206.378906 322.808594 L 212.03125 321.800781 C 224.054688 319.449219 235.839844 315.515625 246.785156 309.839844 C 257.796875 304.285156 267.886719 296.933594 276.894531 288.464844 L 276.902344 288.460938 L 276.96875 288.402344 L 277.03125 288.339844 " fill-opacity="1" fill-rule="nonzero"/></g></g></g><g fill="#000000" fill-opacity="1"><g transform="translate(175.702574, 331.118591)"><g><path d="M 1.9375 -0.328125 L -1.1875 -19.015625 L 6.75 -20.34375 C 7.613281 -20.488281 8.4375 -20.441406 9.21875 -20.203125 C 10 -19.960938 10.703125 -19.59375 11.328125 -19.09375 C 11.960938 -18.601562 12.488281 -18.007812 12.90625 -17.3125 C 13.332031 -16.625 13.609375 -15.898438 13.734375 -15.140625 C 13.867188 -14.347656 13.859375 -13.550781 13.703125 -12.75 C 13.546875 -11.957031 13.257812 -11.226562 12.84375 -10.5625 C 12.4375 -9.894531 11.898438 -9.328125 11.234375 -8.859375 C 10.578125 -8.390625 9.816406 -8.082031 8.953125 -7.9375 L 4.53125 -7.203125 L 5.578125 -0.9375 Z M 4 -10.40625 L 8.21875 -11.109375 C 8.882812 -11.222656 9.394531 -11.582031 9.75 -12.1875 C 10.101562 -12.800781 10.203125 -13.578125 10.046875 -14.515625 C 9.972656 -14.984375 9.832031 -15.394531 9.625 -15.75 C 9.425781 -16.113281 9.1875 -16.40625 8.90625 -16.625 C 8.632812 -16.851562 8.332031 -17.003906 8 -17.078125 C 7.675781 -17.160156 7.351562 -17.175781 7.03125 -17.125 L 2.984375 -16.453125 Z M 4 -10.40625 "/></g></g></g><g fill="#000000" fill-opacity="1"><g transform="translate(203.762623, 325.38328)"><g><path d="M 13.25 -8 L 14.3125 -4.9375 L 1.859375 -0.640625 L -4.328125 -18.5625 L 7.90625 -22.78125 L 8.96875 -19.734375 L 0.21875 -16.71875 L 1.703125 -12.390625 L 9.25 -15 L 10.21875 -12.171875 L 2.671875 -9.5625 L 4.28125 -4.90625 Z M 13.25 -8 "/></g></g></g><g fill="#000000" fill-opacity="1"><g transform="translate(229.930179, 315.310007)"><g><path d="M 11.765625 -10.0625 L 13.3125 -7.21875 L 1.734375 -0.9375 L -7.296875 -17.59375 L 4.078125 -23.765625 L 5.609375 -20.9375 L -2.53125 -16.53125 L -0.34375 -12.515625 L 6.671875 -16.3125 L 8.09375 -13.6875 L 1.078125 -9.890625 L 3.421875 -5.546875 Z M 11.765625 -10.0625 "/></g></g></g><g fill="#000000" fill-opacity="1"><g transform="translate(254.154346, 301.094838)"><g><path d="M 1.546875 -1.21875 L -10.171875 -16.109375 L -3.578125 -21.296875 C -2.890625 -21.835938 -2.140625 -22.191406 -1.328125 -22.359375 C -0.523438 -22.535156 0.265625 -22.554688 1.046875 -22.421875 C 1.835938 -22.285156 2.582031 -22.015625 3.28125 -21.609375 C 3.976562 -21.203125 4.566406 -20.695312 5.046875 -20.09375 C 5.804688 -19.125 6.253906 -18.050781 6.390625 -16.875 C 6.535156 -15.707031 6.335938 -14.625 5.796875 -13.625 L 13.59375 -10.703125 L 10.34375 -8.140625 L 3.375 -10.75 L 0.5 -8.5 L 4.4375 -3.5 Z M -1.5 -11.046875 L 2.140625 -13.90625 C 2.398438 -14.113281 2.597656 -14.367188 2.734375 -14.671875 C 2.878906 -14.972656 2.945312 -15.296875 2.9375 -15.640625 C 2.9375 -15.992188 2.867188 -16.351562 2.734375 -16.71875 C 2.597656 -17.09375 2.398438 -17.453125 2.140625 -17.796875 C 1.867188 -18.140625 1.554688 -18.414062 1.203125 -18.625 C 0.859375 -18.832031 0.503906 -18.96875 0.140625 -19.03125 C -0.210938 -19.101562 -0.554688 -19.097656 -0.890625 -19.015625 C -1.234375 -18.941406 -1.53125 -18.8125 -1.78125 -18.625 L -5.296875 -15.859375 Z M -1.5 -11.046875 "/></g></g></g><g fill="#000000" fill-opacity="1"><g transform="translate(276.890793, 281.825647)"><g><path d="M 1.3125 -1.46875 L -12.78125 -14.140625 L -7.390625 -20.125 C -6.804688 -20.769531 -6.132812 -21.242188 -5.375 -21.546875 C -4.613281 -21.847656 -3.832031 -22 -3.03125 -22 C -2.226562 -22 -1.441406 -21.859375 -0.671875 -21.578125 C 0.0859375 -21.304688 0.753906 -20.914062 1.328125 -20.40625 C 1.921875 -19.863281 2.398438 -19.234375 2.765625 -18.515625 C 3.140625 -17.796875 3.375 -17.046875 3.46875 -16.265625 C 3.5625 -15.492188 3.492188 -14.71875 3.265625 -13.9375 C 3.035156 -13.15625 2.628906 -12.441406 2.046875 -11.796875 L -0.953125 -8.453125 L 3.78125 -4.203125 Z M -3.359375 -10.625 L -0.5 -13.8125 C -0.0390625 -14.3125 0.132812 -14.910156 0.03125 -15.609375 C -0.0703125 -16.316406 -0.472656 -16.988281 -1.171875 -17.625 C -1.523438 -17.9375 -1.890625 -18.171875 -2.265625 -18.328125 C -2.648438 -18.484375 -3.019531 -18.5625 -3.375 -18.5625 C -3.726562 -18.5625 -4.0625 -18.488281 -4.375 -18.34375 C -4.6875 -18.207031 -4.953125 -18.019531 -5.171875 -17.78125 L -7.921875 -14.71875 Z M -3.359375 -10.625 "/></g></g></g><g fill="#000000" fill-opacity="1"><g transform="translate(295.328024, 259.847022)"><g><path d="M 1.046875 -1.671875 L -15 -11.75 L -10.53125 -18.84375 C -10.070312 -19.59375 -9.488281 -20.179688 -8.78125 -20.609375 C -8.082031 -21.046875 -7.335938 -21.328125 -6.546875 -21.453125 C -5.765625 -21.585938 -4.972656 -21.582031 -4.171875 -21.4375 C -3.378906 -21.289062 -2.65625 -21.015625 -2 -20.609375 C -0.957031 -19.953125 -0.175781 -19.09375 0.34375 -18.03125 C 0.863281 -16.976562 1.039062 -15.898438 0.875 -14.796875 L 9.203125 -14.640625 L 7 -11.15625 L -0.453125 -11.25 L -2.375 -8.171875 L 3.015625 -4.796875 Z M -5.109375 -9.90625 L -2.65625 -13.8125 C -2.476562 -14.09375 -2.375 -14.398438 -2.34375 -14.734375 C -2.320312 -15.078125 -2.367188 -15.410156 -2.484375 -15.734375 C -2.609375 -16.054688 -2.796875 -16.367188 -3.046875 -16.671875 C -3.296875 -16.984375 -3.601562 -17.253906 -3.96875 -17.484375 C -4.34375 -17.722656 -4.726562 -17.878906 -5.125 -17.953125 C -5.519531 -18.023438 -5.894531 -18.03125 -6.25 -17.96875 C -6.613281 -17.914062 -6.941406 -17.796875 -7.234375 -17.609375 C -7.535156 -17.429688 -7.769531 -17.210938 -7.9375 -16.953125 L -10.3125 -13.171875 Z M -5.109375 -9.90625 "/></g></g></g><g fill="#000000" fill-opacity="1"><g transform="translate(310.233512, 234.057631)"><g><path d="M 2.78125 -15.234375 L 5.765625 -14 L 0.75 -1.8125 L -16.765625 -9.03125 L -11.828125 -21 L -8.859375 -19.78125 L -12.390625 -11.234375 L -8.15625 -9.484375 L -5.109375 -16.859375 L -2.359375 -15.71875 L -5.40625 -8.34375 L -0.828125 -6.46875 Z M 2.78125 -15.234375 "/></g></g></g><g fill="#000000" fill-opacity="1"><g transform="translate(320.015983, 207.762591)"><g><path d="M 0.4375 -1.921875 L -18.046875 -6.140625 L -16.25 -13.984375 C -16.0625 -14.835938 -15.703125 -15.578125 -15.171875 -16.203125 C -14.648438 -16.835938 -14.039062 -17.351562 -13.34375 -17.75 C -12.644531 -18.144531 -11.894531 -18.40625 -11.09375 -18.53125 C -10.289062 -18.65625 -9.515625 -18.628906 -8.765625 -18.453125 C -7.984375 -18.273438 -7.253906 -17.960938 -6.578125 -17.515625 C -5.910156 -17.078125 -5.347656 -16.539062 -4.890625 -15.90625 C -4.429688 -15.269531 -4.109375 -14.554688 -3.921875 -13.765625 C -3.742188 -12.984375 -3.753906 -12.164062 -3.953125 -11.3125 L -4.9375 -6.9375 L 1.265625 -5.515625 Z M -8.09375 -7.65625 L -7.140625 -11.828125 C -6.992188 -12.484375 -7.132812 -13.09375 -7.5625 -13.65625 C -8 -14.21875 -8.679688 -14.601562 -9.609375 -14.8125 C -10.078125 -14.925781 -10.515625 -14.957031 -10.921875 -14.90625 C -11.328125 -14.851562 -11.679688 -14.738281 -11.984375 -14.5625 C -12.296875 -14.394531 -12.550781 -14.175781 -12.75 -13.90625 C -12.957031 -13.632812 -13.097656 -13.335938 -13.171875 -13.015625 L -14.078125 -9.015625 Z M -8.09375 -7.65625 "/></g></g></g><g fill="#000000" fill-opacity="1"><g transform="translate(103.238329, 216.646004)"><g><path d="M 47.757812 -95.253906 C 34.273438 -95.253906 20.703125 -91.078125 9.394531 -86.640625 C 0.78125 -82.902344 12.089844 -82.03125 15.484375 -83.335938 C 24.792969 -87.25 34.96875 -90.46875 44.539062 -90.46875 C 61.675781 -90.46875 71.417969 -79.855469 71.417969 -63.414062 C 71.417969 -48.628906 61.851562 -37.753906 47.0625 -37.753906 C 41.058594 -37.753906 34.1875 -39.929688 30.273438 -44.191406 C 30.097656 -54.628906 29.402344 -65.15625 28.359375 -75.855469 C 28.359375 -76.550781 26.53125 -76.8125 23.835938 -76.8125 C 20.53125 -76.8125 14.527344 -75.421875 14.527344 -73.765625 L 14.527344 -73.679688 C 15.570312 -61.761719 16.441406 -49.671875 16.441406 -37.578125 C 16.441406 -25.835938 16.789062 19.660156 -1.132812 19.660156 C -7.046875 19.660156 -11.394531 15.917969 -15.832031 12.351562 C -18.441406 10.4375 -30.359375 12.527344 -26.96875 15.570312 C -20.964844 20.53125 -12.699219 23.398438 -3.828125 23.398438 C 28.011719 23.398438 30.011719 -12.613281 30.273438 -35.058594 C 35.578125 -33.492188 40.796875 -33.230469 46.277344 -33.230469 C 65.765625 -34.011719 85.25 -44.105469 85.25 -65.242188 C 85.25 -86.554688 66.199219 -95.253906 47.757812 -95.253906 Z M 47.757812 -95.253906 "/></g></g></g><g fill="#000000" fill-opacity="1"><g transform="translate(182.23602, 216.646004)"><g><path d="M 47.757812 -95.253906 C 34.273438 -95.253906 20.703125 -91.078125 9.394531 -86.640625 C 0.78125 -82.902344 12.089844 -82.03125 15.484375 -83.335938 C 24.792969 -87.25 34.96875 -90.46875 44.539062 -90.46875 C 61.675781 -90.46875 71.417969 -79.855469 71.417969 -63.414062 C 71.417969 -48.628906 61.851562 -37.753906 47.0625 -37.753906 C 41.058594 -37.753906 34.1875 -39.929688 30.273438 -44.191406 C 30.097656 -54.628906 29.402344 -65.15625 28.359375 -75.855469 C 28.359375 -76.550781 26.53125 -76.8125 23.835938 -76.8125 C 20.53125 -76.8125 14.527344 -75.421875 14.527344 -73.765625 L 14.527344 -73.679688 C 15.570312 -61.761719 16.441406 -49.671875 16.441406 -37.578125 C 16.441406 -25.835938 16.789062 19.660156 -1.132812 19.660156 C -7.046875 19.660156 -11.394531 15.917969 -15.832031 12.351562 C -18.441406 10.4375 -30.359375 12.527344 -26.96875 15.570312 C -20.964844 20.53125 -12.699219 23.398438 -3.828125 23.398438 C 28.011719 23.398438 30.011719 -12.613281 30.273438 -35.058594 C 35.578125 -33.492188 40.796875 -33.230469 46.277344 -33.230469 C 65.765625 -34.011719 85.25 -44.105469 85.25 -65.242188 C 85.25 -86.554688 66.199219 -95.253906 47.757812 -95.253906 Z M 47.757812 -95.253906 "/></g></g></g><g clip-path="url(#e88ac3e4ae)"><g clip-path="url(#59a1187b12)"><path fill="#000000" d="M 243.648438 211.566406 L 256.839844 211.566406 L 256.839844 224.757812 L 243.648438 224.757812 Z M 243.648438 211.566406 " fill-opacity="1" fill-rule="nonzero"/></g></g></svg>