<svg xmlns="http://www.w3.org/2000/svg" xmlns:xlink="http://www.w3.org/1999/xlink" width="500" zoomAndPan="magnify" viewBox="0 0 375 374.999991" height="500" preserveAspectRatio="xMidYMid meet" version="1.0"><defs><g/><clipPath id="60a47f90b4"><path d="M 20.160156 166.308594 L 354.839844 166.308594 L 354.839844 206.523438 L 20.160156 206.523438 Z M 20.160156 166.308594 " clip-rule="nonzero"/></clipPath></defs><g fill="#231f20" fill-opacity="1"><g transform="translate(62.834529, 259.616186)"><g><path d="M 12.394531 0 L 46.039062 0 C 44.625 -13.457031 44.09375 -21.425781 44.09375 -37.894531 L 44.09375 -65.519531 L 56.132812 -65.519531 C 90.132812 -65.519531 120.234375 -72.070312 120.234375 -103.589844 C 120.234375 -135.109375 90.132812 -141.660156 56.132812 -141.660156 L 12.394531 -141.660156 C 13.8125 -128.203125 14.34375 -120.234375 14.34375 -103.765625 L 14.34375 -37.894531 C 14.34375 -21.425781 13.8125 -13.457031 12.394531 0 Z M 44.09375 -69.238281 L 44.09375 -137.941406 L 55.601562 -137.941406 C 73.839844 -137.941406 89.953125 -130.859375 89.953125 -103.589844 C 89.953125 -76.320312 73.839844 -69.238281 55.601562 -69.238281 Z M 44.09375 -69.238281 "/></g></g></g><g fill="#231f20" fill-opacity="1"><g transform="translate(183.06464, 259.616186)"><g><path d="M 12.394531 0 L 46.039062 0 C 44.625 -13.457031 44.09375 -21.425781 44.09375 -37.894531 L 44.09375 -65.519531 L 56.132812 -65.519531 C 90.132812 -65.519531 120.234375 -72.070312 120.234375 -103.589844 C 120.234375 -135.109375 90.132812 -141.660156 56.132812 -141.660156 L 12.394531 -141.660156 C 13.8125 -128.203125 14.34375 -120.234375 14.34375 -103.765625 L 14.34375 -37.894531 C 14.34375 -21.425781 13.8125 -13.457031 12.394531 0 Z M 44.09375 -69.238281 L 44.09375 -137.941406 L 55.601562 -137.941406 C 73.839844 -137.941406 89.953125 -130.859375 89.953125 -103.589844 C 89.953125 -76.320312 73.839844 -69.238281 55.601562 -69.238281 Z M 44.09375 -69.238281 "/></g></g></g><g clip-path="url(#60a47f90b4)"><path fill="#fbfaf9" d="M 20.160156 166.308594 L 354.839844 166.308594 L 354.839844 206.523438 L 20.160156 206.523438 Z M 20.160156 166.308594 " fill-opacity="1" fill-rule="nonzero"/></g><g fill="#231f20" fill-opacity="1"><g transform="translate(35.315572, 196.540607)"><g><path d="M 1.921875 -19.171875 L 10.265625 -19.171875 C 12.710938 -19.171875 14.613281 -18.585938 15.96875 -17.421875 C 17.320312 -16.265625 18 -14.617188 18 -12.484375 C 18 -10.242188 17.320312 -8.5 15.96875 -7.25 C 14.613281 -6.007812 12.710938 -5.390625 10.265625 -5.390625 L 6.796875 -5.390625 L 6.796875 0 L 1.921875 0 Z M 6.796875 -15.34375 L 6.796875 -9.234375 L 10.03125 -9.234375 C 11.101562 -9.234375 11.929688 -9.492188 12.515625 -10.015625 C 13.097656 -10.546875 13.390625 -11.316406 13.390625 -12.328125 C 13.390625 -13.316406 13.097656 -14.066406 12.515625 -14.578125 C 11.929688 -15.085938 11.101562 -15.34375 10.03125 -15.34375 Z M 6.796875 -15.34375 "/></g></g></g><g fill="#231f20" fill-opacity="1"><g transform="translate(75.861266, 196.540607)"><g><path d="M 16.921875 -15.34375 L 6.796875 -15.34375 L 6.796875 -11.53125 L 15.9375 -11.53125 L 15.9375 -7.703125 L 6.796875 -7.703125 L 6.796875 -3.828125 L 17.234375 -3.828125 L 17.234375 0 L 1.921875 0 L 1.921875 -19.171875 L 16.921875 -19.171875 Z M 16.921875 -15.34375 "/></g></g></g><g fill="#231f20" fill-opacity="1"><g transform="translate(116.242633, 196.540607)"><g><path d="M 16.921875 -15.34375 L 6.796875 -15.34375 L 6.796875 -11.53125 L 15.9375 -11.53125 L 15.9375 -7.703125 L 6.796875 -7.703125 L 6.796875 -3.828125 L 17.234375 -3.828125 L 17.234375 0 L 1.921875 0 L 1.921875 -19.171875 L 16.921875 -19.171875 Z M 16.921875 -15.34375 "/></g></g></g><g fill="#231f20" fill-opacity="1"><g transform="translate(156.624001, 196.540607)"><g><path d="M 13.46875 0 L 10.625 -5.390625 L 6.796875 -5.390625 L 6.796875 0 L 1.921875 0 L 1.921875 -19.171875 L 10.484375 -19.171875 C 13.023438 -19.171875 14.988281 -18.585938 16.375 -17.421875 C 17.769531 -16.265625 18.46875 -14.617188 18.46875 -12.484375 C 18.46875 -9.523438 17.304688 -7.472656 14.984375 -6.328125 L 19.015625 0 Z M 6.796875 -9.234375 L 10.484375 -9.234375 C 11.546875 -9.234375 12.367188 -9.492188 12.953125 -10.015625 C 13.535156 -10.546875 13.828125 -11.316406 13.828125 -12.328125 C 13.828125 -13.316406 13.535156 -14.066406 12.953125 -14.578125 C 12.367188 -15.085938 11.546875 -15.34375 10.484375 -15.34375 L 6.796875 -15.34375 Z M 6.796875 -9.234375 "/></g></g></g><g fill="#231f20" fill-opacity="1"><g transform="translate(198.374712, 196.540607)"><g><path d="M 1.921875 -19.171875 L 10.265625 -19.171875 C 12.710938 -19.171875 14.613281 -18.585938 15.96875 -17.421875 C 17.320312 -16.265625 18 -14.617188 18 -12.484375 C 18 -10.242188 17.320312 -8.5 15.96875 -7.25 C 14.613281 -6.007812 12.710938 -5.390625 10.265625 -5.390625 L 6.796875 -5.390625 L 6.796875 0 L 1.921875 0 Z M 6.796875 -15.34375 L 6.796875 -9.234375 L 10.03125 -9.234375 C 11.101562 -9.234375 11.929688 -9.492188 12.515625 -10.015625 C 13.097656 -10.546875 13.390625 -11.316406 13.390625 -12.328125 C 13.390625 -13.316406 13.097656 -14.066406 12.515625 -14.578125 C 11.929688 -15.085938 11.101562 -15.34375 10.03125 -15.34375 Z M 6.796875 -15.34375 "/></g></g></g><g fill="#231f20" fill-opacity="1"><g transform="translate(238.920417, 196.540607)"><g><path d="M 13.46875 0 L 10.625 -5.390625 L 6.796875 -5.390625 L 6.796875 0 L 1.921875 0 L 1.921875 -19.171875 L 10.484375 -19.171875 C 13.023438 -19.171875 14.988281 -18.585938 16.375 -17.421875 C 17.769531 -16.265625 18.46875 -14.617188 18.46875 -12.484375 C 18.46875 -9.523438 17.304688 -7.472656 14.984375 -6.328125 L 19.015625 0 Z M 6.796875 -9.234375 L 10.484375 -9.234375 C 11.546875 -9.234375 12.367188 -9.492188 12.953125 -10.015625 C 13.535156 -10.546875 13.828125 -11.316406 13.828125 -12.328125 C 13.828125 -13.316406 13.535156 -14.066406 12.953125 -14.578125 C 12.367188 -15.085938 11.546875 -15.34375 10.484375 -15.34375 L 6.796875 -15.34375 Z M 6.796875 -9.234375 "/></g></g></g><g fill="#231f20" fill-opacity="1"><g transform="translate(280.671116, 196.540607)"><g><path d="M 16.921875 -15.34375 L 6.796875 -15.34375 L 6.796875 -11.53125 L 15.9375 -11.53125 L 15.9375 -7.703125 L 6.796875 -7.703125 L 6.796875 -3.828125 L 17.234375 -3.828125 L 17.234375 0 L 1.921875 0 L 1.921875 -19.171875 L 16.921875 -19.171875 Z M 16.921875 -15.34375 "/></g></g></g><g fill="#231f20" fill-opacity="1"><g transform="translate(321.052484, 196.540607)"><g><path d="M 1.921875 -19.171875 L 10.265625 -19.171875 C 12.710938 -19.171875 14.613281 -18.585938 15.96875 -17.421875 C 17.320312 -16.265625 18 -14.617188 18 -12.484375 C 18 -10.242188 17.320312 -8.5 15.96875 -7.25 C 14.613281 -6.007812 12.710938 -5.390625 10.265625 -5.390625 L 6.796875 -5.390625 L 6.796875 0 L 1.921875 0 Z M 6.796875 -15.34375 L 6.796875 -9.234375 L 10.03125 -9.234375 C 11.101562 -9.234375 11.929688 -9.492188 12.515625 -10.015625 C 13.097656 -10.546875 13.390625 -11.316406 13.390625 -12.328125 C 13.390625 -13.316406 13.097656 -14.066406 12.515625 -14.578125 C 11.929688 -15.085938 11.101562 -15.34375 10.03125 -15.34375 Z M 6.796875 -15.34375 "/></g></g></g></svg>